# xmcd
#
# Track frame offsets:
#	182
#	20307
#	41607
#	59757
#
# Disc length: 1059 seconds
# Revision: 0
# Processed by: cddbd v1.5.2PL0 Copyright (c) Steve Scherf et al.
# Submitted via: dBpowerAMP V12.0
#
DISCID=2f042104
DTITLE=Gary Barlow - Open Road (Single Pt2)
DYEAR=1997
DGENRE=Pop
TTITLE0=Open Road (Rose and Foster Mix)
TTITLE1=Open Road (Mr. Pink Mix)
TTITLE2=Back for Good (Live)
TTITLE3=Open Road (Live)
EXTD=
EXTT0=
EXTT1=
EXTT2=
EXTT3=
PLAYORDER=
